<svg data-v-fde0c5aa="" xmlns="http://www.w3.org/2000/svg" viewBox="0 0 300 300" class="iconLeftSlogan"><!----><defs data-v-fde0c5aa=""><!----></defs><rect data-v-fde0c5aa="" fill="#FFFFFF" x="0" y="0" width="300px" height="300px" class="logo-background-square"></rect><defs data-v-fde0c5aa=""><!----></defs><g data-v-fde0c5aa="" id="fde7b61a-3918-4930-b872-3a21b842a733" fill="#321926" transform="matrix(2.404482820997621,0,0,2.404482820997621,100.5347052046881,119.62200889462788)"><path d="M4.65 10.68L3.08 10.68L3.08 14L1.51 14L1.51 4.20L4.65 4.20L4.65 4.20Q5.47 4.20 6.15 4.39L6.15 4.39L6.15 4.39Q6.82 4.58 7.33 5.26L7.33 5.26L7.33 5.26Q7.84 5.94 7.84 7.29L7.84 7.29L7.84 7.29Q7.84 9.35 6.90 10.02L6.90 10.02L6.90 10.02Q5.95 10.68 4.65 10.68L4.65 10.68ZM3.08 5.53L3.08 9.35L4.65 9.35L4.65 9.35Q5.18 9.35 5.52 9.22L5.52 9.22L5.52 9.22Q5.85 9.09 6.05 8.64L6.05 8.64L6.05 8.64Q6.26 8.20 6.26 7.34L6.26 7.34L6.26 7.34Q6.26 6.54 6.05 6.15L6.05 6.15L6.05 6.15Q5.85 5.75 5.52 5.64L5.52 5.64L5.52 5.64Q5.19 5.53 4.65 5.53L4.65 5.53L3.08 5.53ZM12.64 14.15L12.64 14.15Q11.23 14.15 10.29 13.27L10.29 13.27L10.29 13.27Q9.35 12.38 9.35 10.49L9.35 10.49L9.35 10.49Q9.35 9.21 9.81 8.39L9.81 8.39L9.81 8.39Q10.26 7.57 11.00 7.20L11.00 7.20L11.00 7.20Q11.75 6.83 12.64 6.83L12.64 6.83L12.64 6.83Q13.54 6.83 14.27 7.20L14.27 7.20L14.27 7.20Q15.01 7.57 15.46 8.39L15.46 8.39L15.46 8.39Q15.92 9.21 15.92 10.49L15.92 10.49L15.92 10.49Q15.92 11.77 15.46 12.59L15.46 12.59L15.46 12.59Q15.01 13.41 14.27 13.78L14.27 13.78L14.27 13.78Q13.54 14.15 12.64 14.15L12.64 14.15ZM12.64 12.81L12.64 12.81Q13.30 12.81 13.78 12.27L13.78 12.27L13.78 12.27Q14.27 11.73 14.27 10.49L14.27 10.49L14.27 10.49Q14.27 9.25 13.78 8.71L13.78 8.71L13.78 8.71Q13.30 8.18 12.64 8.18L12.64 8.18L12.64 8.18Q11.97 8.18 11.49 8.71L11.49 8.71L11.49 8.71Q11.00 9.24 11.00 10.49L11.00 10.49L11.00 10.49Q11.00 11.73 11.49 12.27L11.49 12.27L11.49 12.27Q11.97 12.81 12.64 12.81L12.64 12.81ZM23.34 6.85L23.34 6.85Q23.86 6.85 24.21 7.05L24.21 7.05L24.21 7.05Q24.57 7.25 24.78 7.83L24.78 7.83L24.78 7.83Q24.99 8.40 24.99 9.49L24.99 9.49L24.99 14L23.49 14L23.49 9.91L23.49 9.91Q23.49 9.20 23.44 8.83L23.44 8.83L23.44 8.83Q23.38 8.47 23.25 8.33L23.25 8.33L23.25 8.33Q23.13 8.19 22.86 8.19L22.86 8.19L22.86 8.19Q22.58 8.19 22.27 8.43L22.27 8.43L22.27 8.43Q21.97 8.68 21.84 8.99L21.84 8.99L21.84 9.00L21.84 14L20.44 14L20.44 9.91L20.44 9.91Q20.44 9.21 20.38 8.84L20.38 8.84L20.38 8.84Q20.33 8.47 20.19 8.33L20.19 8.33L20.19 8.33Q20.05 8.19 19.80 8.19L19.80 8.19L19.80 8.19Q19.53 8.19 19.22 8.44L19.22 8.44L19.22 8.44Q18.91 8.69 18.79 9.02L18.79 9.02L18.79 14L17.29 14L17.29 9.17L17.29 7L18.40 7L18.62 7.80L18.62 7.80Q18.91 7.35 19.32 7.10L19.32 7.10L19.32 7.10Q19.73 6.85 20.19 6.85L20.19 6.85L20.19 6.85Q20.72 6.85 21.11 7.10L21.11 7.10L21.11 7.10Q21.50 7.36 21.67 7.88L21.67 7.88L21.67 7.88Q21.98 7.39 22.41 7.12L22.41 7.12L22.41 7.12Q22.85 6.85 23.34 6.85L23.34 6.85ZM29.44 14.15L29.44 14.15Q28.03 14.15 27.09 13.27L27.09 13.27L27.09 13.27Q26.15 12.38 26.15 10.49L26.15 10.49L26.15 10.49Q26.15 9.21 26.61 8.39L26.61 8.39L26.61 8.39Q27.06 7.57 27.80 7.20L27.80 7.20L27.80 7.20Q28.55 6.83 29.44 6.83L29.44 6.83L29.44 6.83Q30.34 6.83 31.07 7.20L31.07 7.20L31.07 7.20Q31.81 7.57 32.26 8.39L32.26 8.39L32.26 8.39Q32.72 9.21 32.72 10.49L32.72 10.49L32.72 10.49Q32.72 11.77 32.26 12.59L32.26 12.59L32.26 12.59Q31.81 13.41 31.07 13.78L31.07 13.78L31.07 13.78Q30.34 14.15 29.44 14.15L29.44 14.15ZM29.44 12.81L29.44 12.81Q30.10 12.81 30.58 12.27L30.58 12.27L30.58 12.27Q31.07 11.73 31.07 10.49L31.07 10.49L31.07 10.49Q31.07 9.25 30.58 8.71L30.58 8.71L30.58 8.71Q30.10 8.18 29.44 8.18L29.44 8.18L29.44 8.18Q28.77 8.18 28.29 8.71L28.29 8.71L28.29 8.71Q27.80 9.24 27.80 10.49L27.80 10.49L27.80 10.49Q27.80 11.73 28.29 12.27L28.29 12.27L28.29 12.27Q28.77 12.81 29.44 12.81L29.44 12.81ZM39.13 2.80L40.70 2.80L40.70 14L39.47 14L39.20 13.20L39.20 13.20Q38.46 14.15 37.27 14.15L37.27 14.15L37.27 14.15Q35.85 14.15 35.08 13.25L35.08 13.25L35.08 13.25Q34.30 12.35 34.30 10.49L34.30 10.49L34.30 10.49Q34.30 8.61 35.01 7.73L35.01 7.73L35.01 7.73Q35.73 6.85 37.13 6.85L37.13 6.85L37.13 6.85Q37.74 6.85 38.26 7.08L38.26 7.08L38.26 7.08Q38.77 7.31 39.13 7.71L39.13 7.71L39.13 2.80ZM37.58 12.81L37.58 12.81Q38.15 12.81 38.56 12.47L38.56 12.47L38.56 12.47Q38.96 12.14 39.13 11.65L39.13 11.65L39.13 9.42L39.13 9.42Q38.91 8.92 38.48 8.55L38.48 8.55L38.48 8.55Q38.05 8.19 37.44 8.19L37.44 8.19L37.44 8.19Q36.55 8.19 36.21 8.71L36.21 8.71L36.21 8.71Q35.87 9.24 35.87 10.49L35.87 10.49L35.87 10.49Q35.87 11.70 36.27 12.26L36.27 12.26L36.27 12.26Q36.68 12.81 37.58 12.81L37.58 12.81ZM46.24 14.15L46.24 14.15Q44.83 14.15 43.89 13.27L43.89 13.27L43.89 13.27Q42.95 12.38 42.95 10.49L42.95 10.49L42.95 10.49Q42.95 9.21 43.41 8.39L43.41 8.39L43.41 8.39Q43.86 7.57 44.60 7.20L44.60 7.20L44.60 7.20Q45.35 6.83 46.24 6.83L46.24 6.83L46.24 6.83Q47.14 6.83 47.87 7.20L47.87 7.20L47.87 7.20Q48.61 7.57 49.06 8.39L49.06 8.39L49.06 8.39Q49.52 9.21 49.52 10.49L49.52 10.49L49.52 10.49Q49.52 11.77 49.06 12.59L49.06 12.59L49.06 12.59Q48.61 13.41 47.87 13.78L47.87 13.78L47.87 13.78Q47.14 14.15 46.24 14.15L46.24 14.15ZM46.24 12.81L46.24 12.81Q46.90 12.81 47.38 12.27L47.38 12.27L47.38 12.27Q47.87 11.73 47.87 10.49L47.87 10.49L47.87 10.49Q47.87 9.25 47.38 8.71L47.38 8.71L47.38 8.71Q46.90 8.18 46.24 8.18L46.24 8.18L46.24 8.18Q45.57 8.18 45.09 8.71L45.09 8.71L45.09 8.71Q44.60 9.24 44.60 10.49L44.60 10.49L44.60 10.49Q44.60 11.73 45.09 12.27L45.09 12.27L45.09 12.27Q45.57 12.81 46.24 12.81L46.24 12.81ZM56.97 8.22L56.97 8.22Q56.29 8.22 55.82 8.53L55.82 8.53L55.82 8.53Q55.34 8.83 55.13 9.23L55.13 9.23L55.13 12.67L57.34 12.67L57.34 14L51.84 14L51.84 12.67L53.55 12.67L53.55 8.33L51.84 8.33L51.84 7L54.71 7L54.98 7.85L54.98 7.85Q55.36 7.36 55.93 7.10L55.93 7.10L55.93 7.10Q56.50 6.83 57.25 6.83L57.25 6.83L57.25 6.83Q57.92 6.83 58.45 7.10L58.45 7.10L57.99 8.44L57.99 8.44Q57.92 8.37 57.64 8.29L57.64 8.29L57.64 8.29Q57.37 8.22 56.97 8.22L56.97 8.22ZM63.04 14.15L63.04 14.15Q61.63 14.15 60.69 13.27L60.69 13.27L60.69 13.27Q59.75 12.38 59.75 10.49L59.75 10.49L59.75 10.49Q59.75 9.21 60.21 8.39L60.21 8.39L60.21 8.39Q60.66 7.57 61.40 7.20L61.40 7.20L61.40 7.20Q62.15 6.83 63.04 6.83L63.04 6.83L63.04 6.83Q63.94 6.83 64.67 7.20L64.67 7.20L64.67 7.20Q65.41 7.57 65.86 8.39L65.86 8.39L65.86 8.39Q66.32 9.21 66.32 10.49L66.32 10.49L66.32 10.49Q66.32 11.77 65.86 12.59L65.86 12.59L65.86 12.59Q65.41 13.41 64.67 13.78L64.67 13.78L64.67 13.78Q63.94 14.15 63.04 14.15L63.04 14.15ZM63.04 12.81L63.04 12.81Q63.70 12.81 64.18 12.27L64.18 12.27L64.18 12.27Q64.67 11.73 64.67 10.49L64.67 10.49L64.67 10.49Q64.67 9.25 64.18 8.71L64.18 8.71L64.18 8.71Q63.70 8.18 63.04 8.18L63.04 8.18L63.04 8.18Q62.37 8.18 61.89 8.71L61.89 8.71L61.89 8.71Q61.40 9.24 61.40 10.49L61.40 10.49L61.40 10.49Q61.40 11.73 61.89 12.27L61.89 12.27L61.89 12.27Q62.37 12.81 63.04 12.81L63.04 12.81Z"></path></g><defs data-v-fde0c5aa=""><!----></defs><g data-v-fde0c5aa="" id="30ae62f2-9365-4b41-a194-11a1a9da6887" stroke="none" fill="#EA183C" transform="matrix(2.623870473921208,0,0,2.623870473921208,34.09629143367728,118.51309732714256)"><path d="M12 5.869A5.703 5.703 0 0 0 9.158 5.1c-4.592 0-6.908 3.874-6.908 8.75 0 4.876 3.155 8.75 6.908 8.75h5.684c3.753 0 6.908-3.874 6.908-8.75 0-4.876-2.316-8.75-6.908-8.75-1.01 0-1.972.273-2.842.769zm-.421 1.504a.748.748 0 0 0 .842 0c.725-.491 1.547-.773 2.421-.773 3.725 0 5.408 3.294 5.408 7.25s-2.363 7.25-5.408 7.25H9.158c-3.045 0-5.408-3.294-5.408-7.25S5.433 6.6 9.158 6.6c.874 0 1.696.282 2.421.773z"></path><path d="M11.25 6.343v.007c0 .053.006.105.016.155A.75.75 0 0 0 12 7.1s.75-.059.75-.763V5.35c0-1.023.482-1.986 1.3-2.6a.75.75 0 0 0-.9-1.2 4.75 4.75 0 0 0-1.9 3.8v.993z"></path><path d="M11.252 6.297l-.002.053c0 .414.336.75.75.75 0 0 .75-.136.75-.867a4.748 4.748 0 0 0-3.248-4.506.75.75 0 1 0-.474 1.423 3.25 3.25 0 0 1 2.222 3.083l.002.064zM21 13.1H3a.75.75 0 0 0 0 1.5h18a.75.75 0 0 0 0-1.5z"></path><path d="M12.75 13.85v-3a.75.75 0 0 0-1.5 0v3a.75.75 0 0 0 1.5 0zM14.03 17.82l-1.5-1.5a.749.749 0 0 0-1.06 0l-1.5 1.5a.749.749 0 1 0 1.06 1.06l.97-.969.97.969a.749.749 0 1 0 1.06-1.06zM16.75 13.85v-2a.75.75 0 0 0-1.5 0v2a.75.75 0 0 0 1.5 0zM8.75 13.85v-2a.75.75 0 0 0-1.5 0v2a.75.75 0 0 0 1.5 0z"></path></g><defs data-v-fde0c5aa=""><!----></defs><g data-v-fde0c5aa="" id="f0fb06ff-6938-48ab-b990-93c0ee74fdf4" fill="#321926" transform="matrix(0.45199562236943075,0,0,0.45199562236943075,103.6547191903414,162.6962485573633)"><path d="M6.97 6.75C7.63 6.45 8.22 5.85 8.22 4.66C8.22 3.54 7.48 2.21 5.29 2.21L1.13 2.21L1.13 11.48L5.53 11.48C7.64 11.48 8.69 10.43 8.69 9.04C8.69 7.66 7.76 7 6.97 6.75ZM2.18 3.21L5.40 3.21C6.68 3.21 7.17 3.98 7.17 4.75C7.17 5.88 6.26 6.36 5.29 6.36L2.18 6.36ZM5.64 10.49L2.18 10.49L2.18 7.31L5.53 7.31C7 7.31 7.64 8.09 7.64 8.96C7.64 9.93 6.92 10.49 5.64 10.49ZM24.22 3.22L24.22 2.21L17.40 2.21L17.40 11.48L24.22 11.48L24.22 10.47L18.45 10.47L18.45 7.35L23.60 7.35L23.60 6.33L18.45 6.33L18.45 3.22ZM36.72 10.57C34.47 10.57 33.21 8.93 33.21 6.85C33.21 4.76 34.47 3.12 36.72 3.12C38.25 3.12 39.26 3.85 39.73 4.98L40.84 4.98C40.25 3.29 38.74 2.10 36.64 2.10C33.85 2.10 32.16 4.21 32.16 6.85C32.16 9.48 33.85 11.59 36.64 11.59C38.74 11.59 40.25 10.40 40.84 8.71L39.73 8.71C39.26 9.84 38.25 10.57 36.72 10.57ZM53.45 2.10C50.64 2.10 48.75 4.21 48.75 6.85C48.75 9.48 50.64 11.59 53.45 11.59C56.27 11.59 58.16 9.48 58.16 6.85C58.16 4.21 56.27 2.10 53.45 2.10ZM53.45 10.57C51.20 10.57 49.80 8.93 49.80 6.85C49.80 4.76 51.20 3.12 53.45 3.12C55.71 3.12 57.11 4.76 57.11 6.85C57.11 8.93 55.71 10.57 53.45 10.57ZM74.63 2.21L71.37 6.61L68.05 2.21L66.84 2.21L66.84 11.48L67.89 11.48L67.89 3.81L71.37 8.22L74.80 3.81L74.80 11.48L75.85 11.48L75.85 2.21ZM91.94 3.22L91.94 2.21L85.12 2.21L85.12 11.48L91.94 11.48L91.94 10.47L86.17 10.47L86.17 7.35L91.32 7.35L91.32 6.33L86.17 6.33L86.17 3.22ZM118.41 2.21L115.15 6.61L111.83 2.21L110.61 2.21L110.61 11.48L111.66 11.48L111.66 3.81L115.15 8.22L118.58 3.81L118.58 11.48L119.63 11.48L119.63 2.21ZM133.01 2.10C130.20 2.10 128.31 4.21 128.31 6.85C128.31 9.48 130.20 11.59 133.01 11.59C135.83 11.59 137.72 9.48 137.72 6.85C137.72 4.21 135.83 2.10 133.01 2.10ZM133.01 10.57C130.76 10.57 129.36 8.93 129.36 6.85C129.36 4.76 130.76 3.12 133.01 3.12C135.27 3.12 136.67 4.76 136.67 6.85C136.67 8.93 135.27 10.57 133.01 10.57ZM147.45 7.92L150.67 7.92L152.91 11.48L154.15 11.48L151.72 7.74C152.75 7.50 153.96 6.90 153.96 5.11C153.96 3.35 152.74 2.21 150.84 2.21L146.40 2.21L146.40 11.48L147.45 11.48ZM147.45 3.21L150.71 3.21C152.03 3.21 152.91 3.93 152.91 5.11C152.91 6.55 151.65 6.93 150.65 6.93L147.45 6.93ZM169.58 3.22L169.58 2.21L162.76 2.21L162.76 11.48L169.58 11.48L169.58 10.47L163.81 10.47L163.81 7.35L168.97 7.35L168.97 6.33L163.81 6.33L163.81 3.22ZM189.31 8.18L192.43 8.18C194.40 8.18 195.62 7.03 195.62 5.19C195.62 3.37 194.40 2.21 192.43 2.21L188.26 2.21L188.26 11.48L189.31 11.48ZM192.36 3.21C193.82 3.21 194.57 3.96 194.57 5.19C194.57 6.44 193.82 7.20 192.36 7.20L189.31 7.20L189.31 3.21ZM205.10 7.92L208.32 7.92L210.56 11.48L211.81 11.48L209.37 7.74C210.41 7.50 211.61 6.90 211.61 5.11C211.61 3.35 210.39 2.21 208.49 2.21L204.05 2.21L204.05 11.48L205.10 11.48ZM205.10 3.21L208.36 3.21C209.68 3.21 210.56 3.93 210.56 5.11C210.56 6.55 209.30 6.93 208.31 6.93L205.10 6.93ZM224.53 2.10C221.72 2.10 219.83 4.21 219.83 6.85C219.83 9.48 221.72 11.59 224.53 11.59C227.35 11.59 229.24 9.48 229.24 6.85C229.24 4.21 227.35 2.10 224.53 2.10ZM224.53 10.57C222.28 10.57 220.88 8.93 220.88 6.85C220.88 4.76 222.28 3.12 224.53 3.12C226.79 3.12 228.19 4.76 228.19 6.85C228.19 8.93 226.79 10.57 224.53 10.57ZM241.82 2.21L237.92 2.21L237.92 11.48L241.82 11.48C244.03 11.48 246.08 9.74 246.08 6.85C246.08 3.95 244.03 2.21 241.82 2.21ZM241.78 10.49L238.97 10.49L238.97 3.21L241.78 3.21C243.75 3.21 245.03 4.86 245.03 6.85C245.03 8.83 243.75 10.49 241.78 10.49ZM261.49 2.21L261.49 7.52C261.49 9.67 260.06 10.57 258.59 10.57C257.12 10.57 255.71 9.67 255.71 7.52L255.71 2.21L254.66 2.21L254.66 7.49C254.66 9.95 256.28 11.59 258.59 11.59C260.92 11.59 262.54 9.94 262.54 7.49L262.54 2.21ZM275.67 10.57C273.42 10.57 272.16 8.93 272.16 6.85C272.16 4.76 273.42 3.12 275.67 3.12C277.20 3.12 278.21 3.85 278.68 4.98L279.79 4.98C279.20 3.29 277.69 2.10 275.59 2.10C272.80 2.10 271.11 4.21 271.11 6.85C271.11 9.48 272.80 11.59 275.59 11.59C277.69 11.59 279.20 10.40 279.79 8.71L278.68 8.71C278.21 9.84 277.20 10.57 275.67 10.57ZM294.85 2.21L287.34 2.21L287.34 3.22L290.57 3.22L290.57 11.48L291.62 11.48L291.62 3.22L294.85 3.22ZM304.23 2.21L303.18 2.21L303.18 11.48L304.23 11.48ZM319.97 2.21L316.76 10.29L313.56 2.21L312.41 2.21L316.16 11.48L317.37 11.48L321.12 2.21ZM336.11 3.22L336.11 2.21L329.29 2.21L329.29 11.48L336.11 11.48L336.11 10.47L330.34 10.47L330.34 7.35L335.50 7.35L335.50 6.33L330.34 6.33L330.34 3.22ZM344.54 10.05L344.54 11.48L345.90 11.48L345.90 10.05ZM345.60 8.92L345.87 2.21L344.57 2.21L344.83 8.92Z"></path></g></svg>